<?xml version="1.0" encoding="UTF-8"?>
<!DOCTYPE svg PUBLIC "-//W3C//DTD SVG 1.1//EN" "http://www.w3.org/Graphics/SVG/1.1/DTD/svg11.dtd">
<svg xmlns="http://www.w3.org/2000/svg" version="1.1" width="128px" height="128px" style="shape-rendering:geometricPrecision; text-rendering:geometricPrecision; image-rendering:optimizeQuality; fill-rule:evenodd; clip-rule:evenodd" xmlns:xlink="http://www.w3.org/1999/xlink">
<g><path style="opacity:0.984" fill="#20201f" d="M 52.5,-0.5 C 59.8333,-0.5 67.1667,-0.5 74.5,-0.5C 103.176,6.17555 120.842,23.8422 127.5,52.5C 127.5,59.8333 127.5,67.1667 127.5,74.5C 126.236,79.2916 124.569,83.9583 122.5,88.5C 83.1321,79.2759 43.7988,79.2759 4.5,88.5C 2.21936,84.0389 0.552689,79.3723 -0.5,74.5C -0.5,67.1667 -0.5,59.8333 -0.5,52.5C 6.17555,23.8245 23.8422,6.15779 52.5,-0.5 Z"/></g>
<g><path style="opacity:1" fill="#eab40c" d="M 62.5,16.5 C 71.7984,25.2977 80.965,34.2977 90,43.5C 90.6667,44.5 90.6667,45.5 90,46.5C 87,49.5 84,52.5 81,55.5C 75,49.5 69,43.5 63,37.5C 57,43.5 51,49.5 45,55.5C 41.5,52 38,48.5 34.5,45C 44.0356,35.6317 53.3689,26.1317 62.5,16.5 Z"/></g>
<g><path style="opacity:1" fill="#e8b30c" d="M 28.5,52.5 C 32.7504,55.0786 36.417,58.4119 39.5,62.5C 36.1824,66.3181 32.6824,69.9848 29,73.5C 25.5,70 22,66.5 18.5,63C 22.0374,59.6309 25.3707,56.1309 28.5,52.5 Z"/></g>
<g><path style="opacity:1" fill="#e8b30c" d="M 62.5,52.5 C 66.7504,55.0786 70.417,58.4119 73.5,62.5C 70.4684,66.3659 66.9684,69.6992 63,72.5C 59.1667,70 56,66.8333 53.5,63C 56.3222,59.3447 59.3222,55.8447 62.5,52.5 Z"/></g>
<g><path style="opacity:1" fill="#e7b20c" d="M 95.5,52.5 C 99.9046,55.3958 103.905,58.8958 107.5,63C 104.287,66.5494 100.787,69.7161 97,72.5C 93.0316,69.6992 89.5316,66.3659 86.5,62.5C 90.2567,59.7488 93.2567,56.4154 95.5,52.5 Z"/></g>
<g><path style="opacity:1" fill="#d0a211" d="M 43.5,70.5 C 46.2254,71.713 48.5588,73.5464 50.5,76C 46.2589,77.4573 41.9255,77.7907 37.5,77C 39.7059,74.9633 41.7059,72.7966 43.5,70.5 Z"/></g>
<g><path style="opacity:1" fill="#d6a610" d="M 80.5,70.5 C 83.5628,72.0512 86.2295,74.2179 88.5,77C 84.1305,77.4248 79.7972,77.0915 75.5,76C 77.3734,74.2962 79.0401,72.4628 80.5,70.5 Z"/></g>
<g><path style="opacity:0.977" fill="#fd0821" d="M 122.5,88.5 C 113.083,109.582 97.0828,122.582 74.5,127.5C 67.1667,127.5 59.8333,127.5 52.5,127.5C 35.4328,124.047 21.5994,115.38 11,101.5C 8.29506,97.4235 6.12839,93.0901 4.5,88.5C 43.7988,79.2759 83.1321,79.2759 122.5,88.5 Z"/></g>
<g><path style="opacity:1" fill="#fff5f5" d="M 50.5,90.5 C 55.635,89.4262 59.4683,91.0928 62,95.5C 62.6109,99.6818 61.9442,103.682 60,107.5C 57.1034,112.155 52.9367,113.655 47.5,112C 45.6667,111.5 44.5,110.333 44,108.5C 42.5722,101.053 44.7389,95.0525 50.5,90.5 Z"/></g>
<g><path style="opacity:1" fill="#fff7f7" d="M 67.5,90.5 C 71.3158,90.9236 74.9825,90.9236 78.5,90.5C 80.299,90.577 81.9656,91.077 83.5,92C 85.0834,98.6852 84.0834,105.019 80.5,111C 77.3759,112.687 74.2092,112.854 71,111.5C 70.0138,113.778 69.1805,116.111 68.5,118.5C 66.604,119.466 64.604,119.799 62.5,119.5C 64.8095,109.951 66.4762,100.285 67.5,90.5 Z"/></g>
<g><path style="opacity:1" fill="#ff2d33" d="M 51.5,96.5 C 52.8333,96.5 54.1667,96.5 55.5,96.5C 55.6813,99.3971 55.3479,102.23 54.5,105C 51.984,108.57 50.3173,108.237 49.5,104C 50.0712,101.456 50.7379,98.9564 51.5,96.5 Z"/></g>
<g><path style="opacity:1" fill="#ff3538" d="M 73.5,96.5 C 74.8333,96.5 76.1667,96.5 77.5,96.5C 77.6641,99.1873 77.4974,101.854 77,104.5C 74.6652,108.604 72.8319,108.437 71.5,104C 72.0712,101.456 72.7379,98.9564 73.5,96.5 Z"/></g>
</svg>
